<svg height="100" width="100" xmlns="http://www.w3.org/2000/svg"><g fill="#000080"><path d="m50.001303 0c-16.352602 0-29.751303 13.360422-29.751303 29.666303 0 6.317865 2.017532 12.188967 5.432936 17.016175l20.687753 35.762188c2.897215 3.784891 4.823674 3.06608 7.232659-.199393l22.817296-38.830854c.460965-.83384.822139-1.721773 1.137489-2.628431 1.408365-3.43986 2.191867-7.192337 2.191867-11.119685 0-16.305881-13.396104-29.666303-29.748697-29.666303zm0 13.900901c8.805396 0 15.80796 6.985154 15.80797 15.765402 0 8.780247-7.002574 15.762814-15.80797 15.762814-8.805405 0-15.810576-6.982567-15.810576-15.762814 0-8.780248 7.005171-15.765402 15.810576-15.765402z" stroke-width="3.62116"/><path d="m68.912802 48.907851-.04824.126174c.01569-.03832.02717-.07672.04267-.115041.0015-.0039.004-.0072.0056-.01113z"/><path d="m34.005859 69.056641c-14.125859 1.996545-24.005859 6.771562-24.005859 13.800781 0 9.46774 16.508399 17.142578 40 17.142578s40-7.674838 40-17.142578c0-7.028964-9.878869-11.804111-24.003906-13.800781-.651648 1.111256-1.305308 2.220821-1.957032 3.332031 10.64597 1.477058 17.960938 4.581453 17.960938 8.183594 0 5.04946-14.326887 9.142578-32 9.142578s-32-4.093118-32-9.142578c-.001289-3.589575 7.266228-6.691267 17.945312-8.173828-.645552-1.114537-1.294505-2.226873-1.939453-3.341797z"/></g></svg>